HIERARCHY
ROOT root
{
	OFFSET 0.000000 0.000000 0.000000
	CHANNELS 6 Xposition Yposition Zposition Zrotation Yrotation Xrotation
	JOINT lhip
	{
		OFFSET 0.058581 -0.082280 -0.017664
		CHANNELS 3 Zrotation Yrotation Xrotation
		JOINT lknee
		{
			OFFSET 0.043451 -0.386469 0.008037
			CHANNELS 3 Zrotation Yrotation Xrotation
			JOINT lankle
			{
				OFFSET -0.014790 -0.426874 -0.037428
				CHANNELS 3 Zrotation Yrotation Xrotation
				JOINT ltoe
				{
					OFFSET 0.041054 -0.060286 0.122042
					CHANNELS 3 Zrotation Yrotation Xrotation
					End Site
					{
						OFFSET 0.000000 0.000000 0.000000
					}
				}
			}
		}
	}
	JOINT rhip
	{
		OFFSET -0.060310 -0.090513 -0.013543
		CHANNELS 3 Zrotation Yrotation Xrotation
		JOINT rknee
		{
			OFFSET -0.043257 -0.383688 -0.004843
			CHANNELS 3 Zrotation Yrotation Xrotation
			JOINT rankle
			{
				OFFSET 0.019056 -0.420046 -0.034562
				CHANNELS 3 Zrotation Yrotation Xrotation
				JOINT rtoe
				{
					OFFSET -0.034840 -0.062106 0.130323
					CHANNELS 3 Zrotation Yrotation Xrotation
					End Site
					{
						OFFSET 0.000000 0.000000 0.000000
					}
				}
			}
		}
	}
	JOINT lowerback
	{
		OFFSET 0.004439 0.124404 -0.038385
		CHANNELS 3 Zrotation Yrotation Xrotation
		JOINT upperback
		{
			OFFSET 0.004488 0.137956 0.026820
			CHANNELS 3 Zrotation Yrotation Xrotation
			JOINT chest
			{
				OFFSET -0.002265 0.056032 0.002855
				CHANNELS 3 Zrotation Yrotation Xrotation
				JOINT lowerneck
				{
					OFFSET -0.013390 0.211636 -0.033468
					CHANNELS 3 Zrotation Yrotation Xrotation
					JOINT upperneck
					{
						OFFSET 0.010113 0.088937 0.050410
						CHANNELS 3 Zrotation Yrotation Xrotation
						End Site
						{
							OFFSET 0.000000 0.000000 0.000000
						}
					}
				}
				JOINT lclavicle
				{
					OFFSET 0.071702 0.114000 -0.018898
					CHANNELS 3 Zrotation Yrotation Xrotation
					JOINT lshoulder
					{
						OFFSET 0.122921 0.045205 -0.019046
						CHANNELS 3 Zrotation Yrotation Xrotation
						JOINT lelbow
						{
							OFFSET 0.255332 -0.015649 -0.022946
							CHANNELS 3 Zrotation Yrotation Xrotation
							JOINT lwrist
							{
								OFFSET 0.265709 0.012698 -0.007375
								CHANNELS 3 Zrotation Yrotation Xrotation
								End Site
								{
									OFFSET 0.000000 0.000000 0.000000
								}
							}
						}
					}
				}
				JOINT rclavicle
				{
					OFFSET -0.082954 0.112472 -0.023707
					CHANNELS 3 Zrotation Yrotation Xrotation
					JOINT rshoulder
					{
						OFFSET -0.113228 0.046853 -0.008472
						CHANNELS 3 Zrotation Yrotation Xrotation
						JOINT relbow
						{
							OFFSET -0.260127 -0.014369 -0.031269
							CHANNELS 3 Zrotation Yrotation Xrotation
							JOINT rwrist
							{
								OFFSET -0.269108 0.006794 -0.006027
								CHANNELS 3 Zrotation Yrotation Xrotation
								End Site
								{
									OFFSET 0.000000 0.000000 0.000000
								}
							}
						}
					}
				}
			}
		}
	}
}
MOTION
Frames: 12
Frame Time: 0.033333
0.227893 0.274022 0.970932 51.248570 -3.957635 86.038354 -2.613433 4.154514 -10.284858 -7.197378 13.292254 17.347854 3.577809 12.016755 -17.315219 0.000000 -0.000000 0.000000 -5.847361 -5.069777 6.239835 -3.919250 -8.518905 18.199921 -2.062205 -8.298771 -23.632535 0.000000 -0.000000 0.000000 -0.101527 3.264654 -0.699187 -0.591466 -4.108126 -2.390236 -1.796214 0.915578 1.942260 -4.381475 -12.944184 12.094094 5.645140 -13.345711 7.922386 -10.245271 -10.560472 -1.676266 -39.980559 -15.622232 10.455734 145.931820 -72.592310 -138.965491 22.034286 10.502699 -23.673383 7.877414 18.777769 -2.738544 80.606059 19.661780 35.415333 -150.655828 74.380266 -150.951576 -32.312190 -23.766332 -43.230542 
0.245198 0.270407 0.967287 54.239807 -4.305244 86.241619 -4.386382 2.382804 -9.733921 -6.796517 11.191731 16.890663 5.008041 13.362225 -18.441305 0.000000 -0.000000 0.000000 -6.204034 -4.890975 5.972625 -4.503380 -8.122764 21.255045 -1.931728 -9.705719 -23.836804 0.000000 -0.000000 0.000000 -0.293288 3.107811 -1.454655 -0.417737 -4.589688 -2.429527 -2.006309 0.950534 1.854711 -3.932929 -13.397697 11.743982 4.977632 -14.734951 8.937464 -10.018204 -11.241784 -2.400473 -38.883146 -16.861563 10.976766 142.726787 -72.028084 -135.126113 22.624443 10.658840 -23.495844 8.032900 19.834173 -3.907856 81.158199 21.838211 35.851760 -127.268659 74.629227 -129.343991 -32.873643 -26.041333 -42.956460 
0.260567 0.268054 0.966225 56.735179 -4.961100 86.165368 -5.791980 0.333501 -9.314482 -6.927736 10.129388 17.331524 5.339094 14.338697 -18.962193 0.000000 -0.000000 0.000000 -6.652110 -3.536347 4.165351 -5.152659 -7.989996 27.105402 -1.384944 -11.878426 -23.387075 0.000000 -0.000000 0.000000 -1.073179 3.049884 -1.838745 -0.073945 -4.513311 -2.488212 -2.140057 0.915409 2.046606 -3.398587 -14.043913 11.472782 4.342631 -15.929618 9.374258 -9.975910 -11.748346 -2.621321 -38.788281 -19.039953 11.631480 141.470958 -71.843325 -133.495660 24.234888 10.081220 -22.710242 8.622997 20.735805 -4.279350 80.937632 24.611979 35.796992 -104.164991 72.347323 -108.753552 -35.084794 -26.578235 -42.101567 
0.275107 0.265671 0.966964 59.225836 -5.075863 85.185253 -6.508998 0.350838 -7.520701 -7.372733 8.389518 17.439324 5.452798 13.908330 -20.009354 0.000000 -0.000000 0.000000 -7.163371 -3.339958 2.364279 -5.565144 -9.112057 34.280958 -1.721730 -13.171086 -21.272085 0.000000 -0.000000 0.000000 -1.113209 2.230720 -1.297976 -0.025643 -4.355501 -2.450388 -2.218924 1.361517 2.076114 -2.986614 -14.712722 11.401316 3.952394 -16.742465 9.770236 -9.838899 -12.454094 -2.443524 -39.431360 -20.216865 12.213991 143.574750 -71.158706 -134.624390 24.281456 9.809243 -23.182121 9.178734 21.873489 -4.370351 80.758337 27.628881 34.343066 -86.064458 67.940989 -93.119797 -38.072447 -25.808642 -38.897750 
0.287992 0.263824 0.967455 61.741387 -4.996289 84.470896 -6.782721 0.496032 -5.382310 -8.102381 7.092844 16.282000 6.514842 13.074718 -20.772267 0.000000 -0.000000 0.000000 -7.777323 -3.455125 -0.825067 -5.988199 -10.561565 42.860792 -2.538306 -14.706061 -17.544952 0.000000 -0.000000 0.000000 -1.656456 1.548578 -1.311002 0.491635 -3.977680 -2.230945 -1.993090 1.219247 2.196263 -2.656132 -15.548646 11.623724 3.345818 -17.207475 9.939987 -9.887356 -12.795248 -1.818405 -40.731607 -21.442675 13.354311 146.328683 -70.495193 -136.103087 23.816951 9.282173 -24.647497 9.432837 22.516057 -4.550195 78.695965 31.476582 32.444718 -72.703490 62.468056 -82.546208 -40.830805 -24.579413 -35.454571 
0.299367 0.261949 0.966845 64.615614 -4.896585 83.672996 -7.176724 0.206061 -3.426855 -8.515258 5.281841 15.313300 7.419881 12.914770 -21.227916 0.000000 -0.000000 0.000000 -8.656218 -4.117991 -4.577791 -6.328738 -11.734482 51.693588 -2.971808 -15.196472 -14.629444 0.000000 -0.000000 0.000000 -2.392451 0.936905 -0.557665 0.945579 -3.842758 -2.988578 -1.709963 1.003477 2.337240 -2.123036 -16.145631 12.207690 3.073064 -18.079738 9.903489 -9.940918 -13.044593 -1.188908 -41.925530 -22.302900 14.556660 150.438974 -70.172458 -139.157786 22.727535 9.278441 -26.908634 9.896589 22.912129 -4.821510 75.381203 35.665703 29.216584 -63.058041 56.409885 -75.583002 -45.794460 -23.577369 -30.944265 
0.309985 0.259900 0.965626 67.550851 -4.534547 82.657049 -7.413849 0.038982 -2.064633 -8.495568 3.114325 15.888595 7.668678 13.155918 -22.221436 0.000000 -0.000000 0.000000 -9.222284 -5.142325 -8.032853 -5.343492 -11.659586 58.889021 -1.914816 -13.024924 -15.278695 0.000000 -0.000000 0.000000 -2.624798 0.354690 0.246088 1.086163 -3.824106 -3.369062 -1.751793 1.004788 2.564948 -1.132606 -16.330374 11.948048 2.563347 -19.489434 10.215136 -10.063339 -13.326504 -1.427654 -42.690526 -22.492259 15.868573 155.080440 -70.049133 -143.155202 21.426321 8.955264 -28.953113 10.227388 23.269104 -5.275643 70.344074 39.276785 24.363738 -57.346173 50.404584 -72.287393 -50.863735 -21.994711 -25.484499 
0.319652 0.257424 0.964161 70.353591 -3.932854 81.843348 -7.138828 0.153777 -1.563947 -8.645332 1.376658 17.712363 8.017748 12.905249 -23.243743 0.000000 -0.000000 0.000000 -9.371505 -5.895965 -11.941904 -4.227193 -11.420888 64.121815 -0.975531 -12.533717 -15.533839 0.000000 -0.000000 0.000000 -2.678421 -0.168223 0.719958 1.077422 -3.507681 -3.592798 -1.868314 0.935133 2.718124 -0.448685 -17.423353 11.843929 2.303337 -20.452048 10.729863 -10.787058 -13.215816 -1.366397 -42.680563 -22.671059 16.838585 159.832815 -70.089176 -147.153695 20.149798 7.974228 -30.461256 10.322685 23.199711 -5.423027 62.939682 41.405877 18.163199 -54.899413 45.350529 -71.391965 -53.754120 -19.502323 -22.272516 
0.329570 0.254212 0.962959 73.079347 -3.165850 81.024895 -6.358913 0.613108 -1.189337 -9.335921 -0.610409 19.940046 8.118174 12.424921 -24.454992 0.000000 -0.000000 0.000000 -9.721811 -6.595491 -15.486882 -4.312081 -11.391177 67.386624 -0.425596 -12.464876 -16.000908 0.000000 -0.000000 0.000000 -2.593230 -0.740108 1.202230 1.001104 -3.272730 -3.805704 -2.034136 0.851600 2.922414 0.081620 -18.174180 11.775009 2.182056 -21.256421 10.930559 -11.469267 -12.494473 -1.352756 -42.641241 -22.056684 17.417736 165.086641 -69.695084 -151.306165 19.209848 7.256175 -31.459206 10.363275 22.378023 -5.910077 55.862193 42.234370 11.810908 -55.432301 41.416441 -72.039458 -54.878067 -17.409603 -19.436391 
0.339286 0.250645 0.962213 75.503192 -2.349206 80.226696 -5.596918 0.806399 -0.553128 -9.661265 -2.081111 21.593299 8.286787 12.176747 -25.466101 0.000000 -0.000000 0.000000 -10.387353 -6.573778 -18.545905 -4.188167 -10.865843 68.638716 -0.051565 -12.373468 -16.260135 0.000000 -0.000000 0.000000 -2.193965 -1.546460 1.764975 0.768812 -3.054743 -3.950150 -2.339622 0.846036 3.092648 0.390863 -18.647964 11.767125 1.902889 -21.648586 10.978086 -12.187576 -11.109188 -1.246962 -42.055258 -20.707059 17.508252 169.195875 -68.988772 -154.424156 18.318527 6.042251 -31.555931 10.524497 21.264267 -6.492558 48.391575 42.566492 5.539569 -56.918643 38.173903 -73.298500 -56.295439 -14.722846 -16.032170 
0.349403 0.246151 0.962076 77.975476 -1.393860 79.427484 -4.780390 1.027944 0.231534 -9.693777 -3.809797 23.019452 7.994327 11.968199 -26.404882 0.000000 -0.000000 0.000000 -11.237376 -6.373005 -20.709311 -3.553232 -9.525188 68.152728 1.164848 -11.631478 -14.946679 0.000000 -0.000000 0.000000 -1.944033 -2.380213 2.259072 0.722473 -3.077191 -4.027089 -2.421412 0.553056 3.341787 0.583055 -19.270325 11.989455 1.344829 -21.401128 10.621024 -13.015076 -9.275634 -0.770585 -40.966557 -19.024416 16.994715 172.338594 -68.473141 -157.090033 17.574698 5.054382 -32.085824 10.474650 19.506719 -7.562929 40.918694 42.724537 -0.497904 -58.302531 36.112044 -74.125162 -56.969510 -11.328439 -12.691014 
0.358633 0.240857 0.962293 80.564378 -0.269324 79.052787 -3.495682 1.218975 0.398159 -10.019429 -5.610166 24.772748 7.727185 11.568961 -27.200014 0.000000 -0.000000 0.000000 -12.128665 -6.158302 -22.327619 -2.490953 -7.347378 66.547833 2.104045 -10.482163 -10.900672 0.000000 -0.000000 0.000000 -1.598986 -3.282875 2.607729 0.616235 -3.402666 -4.463865 -2.417134 0.183252 3.491712 0.241512 -19.984709 12.806594 1.364507 -20.544792 10.543039 -13.735284 -7.507377 -0.236425 -39.595410 -16.826171 16.352020 174.856241 -68.534083 -160.126041 16.681942 4.428494 -32.962764 10.264030 18.392501 -8.165553 32.550538 42.072826 -6.458819 -60.596560 34.411433 -76.155748 -59.261749 -7.500870 -9.001123 
